<svg width="480" height="182" fill="none" xmlns="http://www.w3.org/2000/svg"><g clip-path="url(#a)"><path d="M90 45C90 20.147 69.853 0 45 0S0 20.147 0 45c0 22.46 16.456 41.077 37.969 44.453V58.008H26.543V45h11.426v-9.914c0-11.278 6.718-17.508 16.997-17.508 4.922 0 10.073.879 10.073.879v11.074h-5.674c-5.59 0-7.334 3.47-7.334 7.032V45h12.48l-1.994 13.008H52.03v31.445C73.544 86.077 90 67.46 90 45z" fill="#954CED"/><path d="M62.517 58.008 64.512 45h-12.48v-8.438c0-3.558 1.743-7.03 7.333-7.03h5.674V18.456s-5.15-.879-10.073-.879c-10.279 0-16.997 6.23-16.997 17.508V45H26.543v13.008h11.426v31.445a45.49 45.49 0 0 0 14.062 0V58.008h10.486z" fill="#fff"/></g><rect x="130" y="92" width="90" height="90" rx="45" fill="#954CED"/><g clip-path="url(#b)"><path d="M166.872 155.663c17.083 0 26.427-14.153 26.427-26.427 0-.402 0-.802-.027-1.201a18.876 18.876 0 0 0 4.634-4.807 18.518 18.518 0 0 1-5.335 1.461 9.324 9.324 0 0 0 4.084-5.137 18.615 18.615 0 0 1-5.898 2.254 9.298 9.298 0 0 0-15.829 8.471 26.369 26.369 0 0 1-19.142-9.704 9.295 9.295 0 0 0 2.876 12.399 9.21 9.21 0 0 1-4.216-1.163v.118a9.296 9.296 0 0 0 7.452 9.105 9.274 9.274 0 0 1-4.194.159 9.3 9.3 0 0 0 8.677 6.45 18.641 18.641 0 0 1-13.746 3.85 26.293 26.293 0 0 0 14.237 4.165" fill="#fff"/></g><rect x="260" width="90" height="90" rx="45" fill="#954CED"/><g clip-path="url(#c)" fill="#fff"><path d="M305.271 26.711c6.047 0 6.764.027 9.142.133 2.211.097 3.404.469 4.2.778 1.052.407 1.813.902 2.6 1.689.795.796 1.282 1.547 1.688 2.6.31.795.681 1.998.778 4.2.107 2.387.133 3.103.133 9.142 0 6.048-.026 6.764-.133 9.142-.097 2.21-.468 3.405-.778 4.2-.406 1.053-.902 1.813-1.688 2.6-.796.796-1.548 1.282-2.6 1.689-.796.31-1.998.68-4.2.778-2.387.106-3.103.132-9.142.132-6.048 0-6.765-.026-9.143-.132-2.21-.097-3.404-.469-4.2-.778-1.052-.407-1.812-.902-2.599-1.69-.796-.795-1.282-1.546-1.689-2.599-.31-.795-.681-1.998-.778-4.2-.106-2.387-.133-3.103-.133-9.142 0-6.048.027-6.764.133-9.143.097-2.21.468-3.404.778-4.2.407-1.052.902-1.812 1.689-2.599.795-.796 1.547-1.282 2.599-1.689.796-.31 1.998-.68 4.2-.778 2.378-.106 3.095-.133 9.143-.133zm0-4.076c-6.146 0-6.915.027-9.329.133-2.405.106-4.058.495-5.49 1.052-1.495.584-2.759 1.353-4.015 2.617-1.264 1.256-2.033 2.52-2.617 4.006-.557 1.441-.946 3.085-1.052 5.49-.106 2.423-.133 3.193-.133 9.338s.027 6.914.133 9.328c.106 2.405.495 4.058 1.052 5.49.584 1.495 1.353 2.76 2.617 4.015a11.066 11.066 0 0 0 4.006 2.608c1.441.557 3.085.946 5.49 1.052 2.414.107 3.184.133 9.329.133 6.145 0 6.914-.026 9.328-.133 2.405-.106 4.058-.495 5.491-1.052a11.062 11.062 0 0 0 4.005-2.608 11.049 11.049 0 0 0 2.608-4.005c.558-1.442.947-3.086 1.053-5.491.106-2.414.132-3.183.132-9.328 0-6.146-.026-6.915-.132-9.329-.106-2.405-.495-4.058-1.053-5.49-.557-1.504-1.326-2.768-2.59-4.024a11.066 11.066 0 0 0-4.006-2.608c-1.441-.557-3.085-.946-5.49-1.052-2.423-.115-3.192-.142-9.337-.142z"/><path d="M305.271 33.644c-6.42 0-11.627 5.207-11.627 11.627 0 6.419 5.207 11.627 11.627 11.627 6.419 0 11.627-5.208 11.627-11.627 0-6.42-5.208-11.627-11.627-11.627zm0 19.169a7.543 7.543 0 0 1 0-15.085 7.543 7.543 0 0 1 7.542 7.543 7.544 7.544 0 0 1-7.542 7.542zM320.072 33.184a2.715 2.715 0 1 1-2.714-2.715 2.72 2.72 0 0 1 2.714 2.715z"/></g><rect x="390" y="92" width="90" height="90" rx="45" fill="#954CED"/><g clip-path="url(#d)"><path d="M444.839 114.635h-7.63v30.837c0 3.674-2.934 6.692-6.586 6.692s-6.586-3.018-6.586-6.692c0-3.609 2.869-6.561 6.391-6.692v-7.742c-7.76.131-14.02 6.495-14.02 14.434 0 8.004 6.39 14.434 14.28 14.434 7.891 0 14.281-6.495 14.281-14.434V129.66a17.672 17.672 0 0 0 10.107 3.412v-7.742c-5.738-.197-10.237-4.921-10.237-10.695z" fill="#fff"/></g><defs><clipPath id="a"><rect width="90" height="90" rx="45" fill="#fff"/></clipPath><clipPath id="b"><path fill="#fff" transform="translate(152.635 114.635)" d="M0 0h45.271v45.271H0z"/></clipPath><clipPath id="c"><path fill="#fff" transform="translate(282.635 22.635)" d="M0 0h45.271v45.271H0z"/></clipPath><clipPath id="d"><path fill="#fff" transform="translate(412.635 114.635)" d="M0 0h45.271v45.271H0z"/></clipPath></defs></svg>