<svg width="244" height="252" fill="none" xmlns="http://www.w3.org/2000/svg"><path opacity=".7" d="M137.231 80.673h26.616" stroke="#2FDBBC" stroke-width="159.698" stroke-linecap="round"/><path d="M169.382 46.01c-1.366 4.502-11.342 9.835-17.474 6.832" stroke="#000" stroke-width="2.662" stroke-linecap="round" stroke-linejoin="round"/><circle cx="133.904" cy="41.414" r="3.327" fill="#000"/><circle cx="161.851" cy="36.09" r="3.327" fill="#000"/><path d="M150.539 157.86 135.9 249.687H89.321l6.745-5.902a13.31 13.31 0 0 0 4.466-8.568l8.752-80.018M150.539 157.86v91.827h46.579l-5.72-5.005a13.305 13.305 0 0 1-4.518-10.845l4.914-78.638M28.743 38.763c20.378.035 19.8 13.806-2.446 8.509 6.511 1.817 16.416 3.899 13.38 9.002-3.035 5.102-14.73-.336-14.73-.336 8.257 4.504 10.414 7.913 7.564 10.385-1.245 1.08-3.37 1.504-5.84 1.307m58.633-2.293c-26.634 12.8-33.152-7.18-35.24-16.78-2.087-9.601 5.166-37.19-4.087-38.573-7.442-1.112-9.757 8.317-9.175 23.065-4.107-1.916-22.552-1.897-26.652 14.35C7.015 59.82 18.653 66.992 26.672 67.63M80.59 98.45c-23.413 5.066-45.272-2.712-53.92-30.82" stroke="#000" stroke-width="2.662" stroke-linecap="round" stroke-linejoin="round"/></svg>