<svg width="67" height="86" fill="none" xmlns="http://www.w3.org/2000/svg"><g opacity=".7"><path fill-rule="evenodd" clip-rule="evenodd" d="M36.99 82.52c-4.696 2.906-10.859 1.454-13.764-3.243L3 46.585C.095 41.888 1.546 35.725 6.243 32.82l4.263-2.638 7.296-4.513 7.295-4.514 6.611-4.09a7.774 7.774 0 0 1 10.702 2.521l21.397 34.585c2.905 4.697 1.453 10.86-3.243 13.765L36.99 82.52z" fill="#2FDBBC"/><path d="M10.506 30.182 6.243 32.82C1.546 35.725.095 41.888 3 46.585l20.226 32.692c2.905 4.697 9.068 6.148 13.765 3.243l23.573-14.584c4.696-2.906 6.148-9.068 3.242-13.765L42.41 19.586a7.774 7.774 0 0 0-10.702-2.52v0M10.506 30.181c-2.365-4.841-5.397-15.45 1.395-19.146 6.791-3.698 11.627 5.206 13.196 10.12m-14.59 9.026 7.295-4.513m7.295-4.514L17.8 25.67m7.296-4.514 6.611-4.09M17.802 25.67C13.724 19.204 7.096 5.478 13.209 2.287c6.113-3.191 14.88 8.522 18.5 14.778" stroke="#2FDBBC" stroke-width="2" stroke-linecap="round" stroke-linejoin="round"/></g></svg>