<svg width="58" height="67" fill="none" xmlns="http://www.w3.org/2000/svg"><g clip-path="url(#a)"><g clip-path="url(#b)" opacity=".7"><path d="M36.654 47.5a2.407 2.407 0 0 1-1.6 2.285L25.32 53.32l-3.535 9.734a2.438 2.438 0 0 1-4.57 0L13.68 53.32l-9.735-3.534a2.438 2.438 0 0 1 0-4.57l9.735-3.535 3.534-9.734a2.437 2.437 0 0 1 4.57 0l3.535 9.735 9.734 3.534a2.408 2.408 0 0 1 1.6 2.285z" fill="#FFAA4C"/></g></g><g opacity=".7" clip-path="url(#c)"><path d="M56.496 12.5a1.544 1.544 0 0 1-1.025 1.465l-6.24 2.265-2.266 6.24a1.562 1.562 0 0 1-2.93 0l-2.265-6.24-6.24-2.265a1.561 1.561 0 0 1 0-2.93l6.24-2.265 2.265-6.24a1.563 1.563 0 0 1 2.93 0l2.265 6.24 6.24 2.265a1.543 1.543 0 0 1 1.026 1.465z" fill="#FFAA4C"/></g><defs><clipPath id="a"><path fill="#fff" transform="translate(0 28)" d="M0 0h39v39H0z"/></clipPath><clipPath id="b"><path fill="#fff" transform="translate(0 28)" d="M0 0h39v39H0z"/></clipPath><clipPath id="c"><path fill="#fff" transform="translate(33)" d="M0 0h25v25H0z"/></clipPath></defs></svg>