<svg width="89" height="121" fill="none" xmlns="http://www.w3.org/2000/svg"><g opacity=".7"><path fill-rule="evenodd" clip-rule="evenodd" d="M51.764 119.321c5.157 1.977 10.94-.601 12.917-5.758l21.997-57.382c1.977-5.157-.601-10.94-5.758-12.917l-10.2-3.91-11.165-4.28-11.164-4.28-10.118-3.878-.78-.299c-5.157-1.977-10.94.601-12.917 5.758L2.58 89.757c-1.976 5.157.601 10.94 5.758 12.917l43.427 16.647z" fill="#FFAA4C"/><path d="m70.72 39.354 10.2 3.91c5.157 1.977 7.735 7.76 5.758 12.917L64.68 113.563c-1.977 5.157-7.76 7.735-12.917 5.758L8.337 102.674c-5.156-1.977-7.734-7.76-5.758-12.917l21.997-57.382c1.977-5.157 7.76-7.735 12.917-5.758l.78.3M70.72 39.353c1.977-7.245 3.365-22.559-6.897-25.852-10.262-3.294-14.564 10.156-15.432 17.293m22.329 8.559-11.165-4.28m-11.164-4.28 11.164 4.28m-11.164-4.28-10.118-3.878m21.282 8.158c3.9-9.913 9.4-30.433.198-33.21C50.552-.913 41.6 17.408 38.273 26.916" stroke="#FFAA4C" stroke-width="2" stroke-linecap="round" stroke-linejoin="round"/></g></svg>