<svg width="111" height="167" fill="none" xmlns="http://www.w3.org/2000/svg"><g opacity=".7"><path fill-rule="evenodd" clip-rule="evenodd" d="M76.688 32.62c5.42-1.376 10.915 1.96 12.195 7.404l20.666 87.907a9.999 9.999 0 0 1-5.472 11.334l-44.784 21.101a10.001 10.001 0 0 1-5.477.879l-21.76-2.664a10 10 0 0 1-8.54-7.723L3.291 61.292a10 10 0 0 1 7.294-11.895l7.27-1.846 16.711-4.24 14.39-3.653 14.389-3.652 13.343-3.386z" fill="#A64CED"/><path d="M34.566 43.31c-2.127-8.38-3.596-25.85 7.544-28.677 11.14-2.827 18.798 13.071 21.235 21.373M34.566 43.31l14.39-3.652m-14.39 3.652-16.71 4.241m45.489-11.545 13.343-3.386c5.42-1.376 10.915 1.96 12.195 7.404l20.666 87.907a9.999 9.999 0 0 1-5.472 11.334l-44.784 21.101a10.001 10.001 0 0 1-5.477.879l-21.76-2.664a10 10 0 0 1-8.54-7.723L3.291 61.292a10 10 0 0 1 7.294-11.895l7.27-1.846m45.49-11.545-14.39 3.652m0 0C44.985 26.683 33.922 1.498 21.422 4.56 8.923 7.62 13.837 34.496 17.856 47.551" stroke="#A64CED" stroke-width="2" stroke-linecap="round" stroke-linejoin="round"/><path d="m55.029 150.066-5.547-19.932M32.842 70.34l11.093 39.863" stroke="#fff" stroke-width="2" stroke-linecap="round" stroke-linejoin="round"/></g></svg>